<svg width="346" height="313" viewBox="0 0 346 313" fill="none" xmlns="http://www.w3.org/2000/svg">
<g id="Group 1">
<g id="bg-pentagon 1" clip-path="url(#clip0)">
<path id="Vector" opacity="0.2" d="M177.5 54L63 132.686L106.735 260H248.265L292 132.686L177.5 54.0007V54Z" stroke="black" stroke-width="15"/>
<g id="stone" filter="url(#filter0_i)">
<g id="layer1">
<g id="rockBorder" opacity="0.59136">
<g filter="url(#filter1_i)">
<path d="M109 297C130.539 297 148 280.434 148 260C148 239.566 130.539 223 109 223C87.4609 223 70 239.566 70 260C70 280.434 87.4609 297 109 297Z" fill="#E3FFFF"/>
</g>
<path d="M109 297C130.539 297 148 280.434 148 260C148 239.566 130.539 223 109 223C87.4609 223 70 239.566 70 260C70 280.434 87.4609 297 109 297Z" stroke="#F80000" stroke-width="32.9423" stroke-linejoin="round"/>
</g>
<path id="rockFig" d="M124.547 252.193C124.022 246.486 116.581 247.069 116.581 247.069C113.441 242.3 108.535 245.754 108.535 245.754C104.765 241.081 100.04 245.412 100.04 245.412C91.8912 244.655 92.207 250.392 92.207 250.392C92.0156 252.217 93.3552 257.859 93.3552 257.859C92.1465 254.607 89.5252 257.306 89.5252 257.306C86.3007 261.591 88.7273 263.936 88.7273 263.936C93.0893 268.339 102.384 273.624 102.384 273.624C105.75 275.284 104.326 276.765 104.326 276.765L124.685 273.868L125.152 270.542C128.247 262.481 124.547 252.193 124.547 252.193Z" fill="#3B4262"/>
</g>
</g>
<g id="layer1_2" filter="url(#filter2_i)">
<g id="spockBorder" opacity="0.59136">
<g id="Group" opacity="0.59136" filter="url(#filter3_i)">
<path id="Vector_2" opacity="0.59136" d="M67.9998 157C89.5389 157 107 140.434 107 120C107 99.5655 89.5389 83 67.9998 83C46.4609 83 29 99.5655 29 120C29 140.434 46.4609 157 67.9998 157Z" fill="#E3FFFF"/>
</g>
<path id="Vector_3" opacity="0.59136" d="M67.9998 157C89.5389 157 107 140.434 107 120C107 99.5655 89.5389 83 67.9998 83C46.4609 83 29 99.5655 29 120C29 140.434 46.4609 157 67.9998 157Z" stroke="#0FD4FF" stroke-width="32.9423" stroke-linejoin="round"/>
</g>
<path id="spockFig" d="M85.0699 119.865L84.4509 119.373C82.9708 118.199 80.5512 117.943 78.745 118.767L74.8866 120.517L75.6904 106.503C75.6904 105.328 74.4859 104.372 73.0041 104.372C72.6837 104.372 72.3757 104.417 72.0903 104.499L72.1862 103.747C72.1862 102.559 70.9626 101.592 69.4604 101.592C68.0709 101.592 66.9063 102.419 66.759 103.479L64.2829 115.347C64.2506 115.508 63.8982 115.491 63.8609 115.39L60.9362 105.875C60.7769 105.442 60.446 105.062 59.993 104.791C59.54 104.52 58.9892 104.373 58.4228 104.372C57.6204 104.372 56.8747 104.658 56.3751 105.158C56.1297 105.402 55.9575 105.688 55.8717 105.993C55.7859 106.299 55.7887 106.616 55.8799 106.92L56.4483 108.836C56.1241 108.816 55.7981 108.848 55.4902 108.932C54.9317 109.078 54.4569 109.379 54.151 109.779C53.8451 110.179 53.728 110.653 53.8208 111.115L55.5419 118.966C55.5419 122.063 56.2258 124.355 56.8007 125.732C57.129 126.524 57.2955 127.352 57.2938 128.186C57.2938 128.92 57.1653 129.651 56.9106 130.357L55.5756 134.064C55.5009 134.273 55.5541 134.499 55.7177 134.673C55.8842 134.847 56.1426 134.95 56.4175 134.95H72.1857C72.3242 134.95 72.4609 134.924 72.5842 134.874C72.7076 134.824 72.8146 134.751 72.8958 134.662C72.977 134.573 73.0307 134.469 73.052 134.36C73.0733 134.251 73.0618 134.14 73.0183 134.035C73.009 134.017 72.2767 132.222 72.9703 129.781C73.8495 129.215 76.9277 127.229 78.0327 126.429C79.8602 125.104 84.8662 121.013 85.0788 120.839C85.239 120.709 85.3282 120.533 85.3265 120.35C85.3247 120.168 85.2328 119.993 85.0699 119.864V119.865Z" fill="#3B4262"/>
</g>
<g id="layer1_3" filter="url(#filter4_i)">
<path id="border" opacity="0.59136" d="M253 297C274.539 297 292 280.434 292 260C292 239.565 274.539 223 253 223C231.461 223 214 239.565 214 260C214 280.434 231.461 297 253 297Z" fill="#E3FFFF" stroke="#7A02A2" stroke-width="32.9423" stroke-linejoin="round"/>
<path id="lizard" d="M259.482 242.924C261.253 241.83 262.95 241.593 264.261 242.257C267.199 243.745 266.773 249.285 265.571 251.685C264.892 253.04 263.689 254.031 261.992 254.633C261.334 256.711 260.411 258.498 259.232 259.975C260.013 260.626 260.999 260.982 262.017 260.98H262.066L263.722 259.348C264.139 258.938 264.815 258.938 265.232 259.348C265.649 259.759 265.649 260.425 265.232 260.835L265.086 260.98H265.419C266.009 260.98 266.487 261.451 266.487 262.032C266.487 262.613 266.009 263.084 265.419 263.084H265.086L265.232 263.228C265.649 263.639 265.649 264.305 265.232 264.716C265.024 264.921 264.751 265.024 264.478 265.024C264.204 265.024 263.931 264.921 263.723 264.716L262.066 263.084H262.016C260.462 263.086 258.96 262.532 257.781 261.521C257.554 261.727 257.319 261.925 257.077 262.113C255.031 263.711 252.529 264.639 249.605 264.894C249.978 266.015 250.042 267.215 249.793 268.369L249.782 268.418L251.057 270.421C251.211 270.663 251.264 270.956 251.203 271.237C251.143 271.517 250.974 271.763 250.734 271.921C250.561 272.033 250.36 272.093 250.154 272.094C249.973 272.093 249.795 272.048 249.637 271.96C249.479 271.873 249.345 271.748 249.249 271.594L249.136 271.417L249.065 271.748C249.014 271.989 248.882 272.205 248.691 272.361C248.501 272.516 248.262 272.602 248.016 272.603C247.938 272.603 247.861 272.595 247.786 272.578C247.506 272.514 247.262 272.343 247.109 272.101C246.955 271.859 246.903 271.566 246.965 271.286L247.036 270.956L246.86 271.07C246.742 271.147 246.609 271.199 246.469 271.225C246.33 271.25 246.187 271.247 246.049 271.217C245.911 271.187 245.78 271.129 245.664 271.048C245.548 270.967 245.45 270.863 245.375 270.743C245.221 270.501 245.169 270.208 245.229 269.928C245.29 269.647 245.458 269.402 245.698 269.244L247.682 267.957L247.693 267.908C247.909 266.908 247.77 265.865 247.302 264.956C246.422 264.931 245.544 264.857 244.671 264.737C242.103 264.391 240.646 265.521 240.261 265.876C237.235 268.663 236.649 273.586 236.644 273.636C236.614 273.9 236.488 274.144 236.29 274.321C236.092 274.499 235.835 274.597 235.569 274.597C235.393 274.597 235.219 274.554 235.063 274.471C234.907 274.388 234.774 274.269 234.675 274.123C234.628 274.052 233.489 272.354 232.989 269.957C232.311 266.701 233.12 263.715 235.328 261.321C236.638 259.907 238.287 258.85 240.12 258.249L239.897 258.307C239.317 258.037 238.685 257.898 238.046 257.898H237.997L236.334 259.53C236.132 259.728 235.86 259.839 235.576 259.838C235.302 259.838 235.028 259.735 234.818 259.53C234.719 259.433 234.64 259.318 234.586 259.19C234.532 259.062 234.504 258.925 234.504 258.786C234.504 258.648 234.532 258.51 234.586 258.383C234.64 258.255 234.719 258.139 234.818 258.043L234.965 257.898H234.631C234.039 257.898 233.559 257.427 233.559 256.846C233.559 256.265 234.039 255.795 234.631 255.795H234.965L234.818 255.65C234.719 255.553 234.64 255.438 234.586 255.31C234.532 255.182 234.504 255.045 234.504 254.906C234.504 254.767 234.532 254.63 234.586 254.502C234.64 254.375 234.719 254.259 234.818 254.162C235.237 253.752 235.915 253.752 236.334 254.162L237.997 255.794H238.046C238.935 255.792 239.815 255.972 240.632 256.323C241.449 256.673 242.185 257.187 242.795 257.833L242.676 257.711C243.653 257.614 244.638 257.631 245.611 257.763C248.323 258.129 250.54 257.752 252.252 256.64C251.288 255.447 250.763 253.96 250.767 252.427V252.377L249.128 250.688C248.93 250.481 248.819 250.206 248.819 249.919C248.819 249.632 248.93 249.357 249.128 249.15C249.225 249.049 249.341 248.969 249.469 248.914C249.598 248.859 249.736 248.831 249.875 248.831C250.015 248.831 250.153 248.859 250.282 248.914C250.41 248.969 250.526 249.049 250.622 249.15L250.768 249.299V248.959C250.768 248.358 251.241 247.871 251.824 247.871C252.407 247.871 252.88 248.358 252.88 248.959V249.298L253.026 249.15C253.122 249.049 253.238 248.969 253.367 248.914C253.495 248.859 253.633 248.831 253.773 248.831C253.913 248.831 254.051 248.859 254.179 248.914C254.308 248.969 254.423 249.049 254.52 249.15C255.148 249.797 254.696 250.508 254.52 250.688L252.88 252.377V252.426C252.88 253.454 253.229 254.436 253.851 255.216C254.626 254.293 255.234 253.132 255.675 251.736C255.353 250.847 254.852 248.741 256.129 246.354C256.798 245.103 258.083 243.789 259.483 242.924L259.482 242.924Z" fill="#3B4262"/>
</g>
<g id="layer1_4" filter="url(#filter5_i)">
<g id="scissorBorder" opacity="0.59136">
<g id="Group_2" opacity="0.59136" filter="url(#filter6_i)">
<path id="Vector_4" opacity="0.59136" d="M177 91C198.539 91 216 74.4344 216 54C216 33.5655 198.539 17 177 17C155.461 17 138 33.5655 138 54C138 74.4344 155.461 91 177 91Z" fill="#E3FFFF"/>
</g>
<path id="Vector_5" opacity="0.59136" d="M177 91C198.539 91 216 74.4344 216 54C216 33.5655 198.539 17 177 17C155.461 17 138 33.5655 138 54C138 74.4344 155.461 91 177 91Z" stroke="#F9A600" stroke-width="32.9423" stroke-linejoin="round"/>
</g>
<path id="scissorFig" d="M168.484 49.2858L172.035 43.5862C170.559 43.3051 167.848 43.2428 165.629 45.7773C162.129 49.7728 160.711 58.4032 160.416 60.4927L169.311 70.6468C170.912 70.4896 178.001 69.4093 184.834 61.6117C184.906 61.4427 186.57 60.0394 185.21 58.4866C184.56 57.7448 183.485 57.759 182.822 58.5162C182.484 58.9021 181.959 58.9071 181.628 58.529C181.297 58.1517 181.302 57.5517 181.639 57.1662L184.053 54.4102C185.28 53.0101 184.124 50.6477 182.411 51.2153L180.435 53.1463C180.074 53.5053 179.537 53.4436 179.241 53.0515C178.934 52.6472 179 52.0335 179.349 51.6881C186.252 44.7741 185.244 45.6065 189.686 40.8545C191.345 39.277 189.258 36.4878 187.623 38.0842L176.878 49.1143C176.565 49.4178 176.086 49.4238 175.779 49.1015C175.424 48.7513 175.416 48.2467 175.648 47.8485L183.142 34.5488C184.238 32.8555 182.082 30.9746 180.928 32.6814L169.847 50.3728C169.58 50.8131 169.042 50.9147 168.675 50.6065C168.585 50.5354 168.509 50.4444 168.451 50.3389C168.393 50.2334 168.354 50.1156 168.336 49.9924C168.318 49.8693 168.322 49.7433 168.347 49.6219C168.373 49.5005 168.419 49.3862 168.484 49.2858L168.484 49.2858Z" fill="#3B4262"/>
</g>
</g>
<g id="layer1_5" filter="url(#filter7_i)">
<g id="handborder" opacity="0.59136">
<g id="Group_3" opacity="0.59136" filter="url(#filter8_i)">
<path id="Vector_6" opacity="0.59136" d="M290 158C311.539 158 329 141.434 329 121C329 100.566 311.539 84 290 84C268.461 84 251 100.566 251 121C251 141.434 268.461 158 290 158Z" fill="#E3FFFF"/>
</g>
<path id="Vector_7" opacity="0.59136" d="M290 158C311.539 158 329 141.434 329 121C329 100.566 311.539 84 290 84C268.461 84 251 100.566 251 121C251 141.434 268.461 158 290 158Z" stroke="#010F7C" stroke-width="32.9423" stroke-linejoin="round"/>
</g>
<path id="handfig" d="M303.894 111.796C303.644 111.713 303.375 111.677 303.107 111.689C302.743 111.711 302.45 111.835 302.276 112.038C301.252 113.245 300.412 115.523 299.735 117.354C299.425 118.201 299.007 119.334 298.706 119.872C298.391 118.365 298.747 112.846 298.885 110.721L298.887 110.686C298.982 109.21 298.995 108.951 298.975 108.837C298.823 108.027 298.437 107.495 297.826 107.257C297.209 107.016 296.408 107.123 295.545 107.559C295.113 107.78 294.993 108.534 294.622 111.955L294.62 111.969C294.416 113.849 293.945 118.177 293.366 118.898C292.713 117.889 291.813 112.16 291.425 109.68C291.154 107.943 290.996 106.946 290.889 106.645C290.665 106.013 289.72 105.477 288.785 105.447C288.006 105.414 287.367 105.747 287.062 106.326C286.491 106.86 286.693 108.629 287.324 112.821C287.624 114.817 288.243 118.937 287.854 119.399C287.075 119.328 285.74 116.747 283.885 111.725C283.364 110.319 283.203 109.896 283.044 109.711C282.728 109.066 281.657 108.568 280.696 108.625C280.616 108.629 280.535 108.638 280.456 108.651C279.953 108.735 278.806 109.124 279.051 110.919C279.728 113.408 280.464 115.235 281.178 117.009L281.193 117.044C281.62 118.107 282.024 119.11 282.399 120.224C283.284 122.854 282.94 124.485 282.936 124.504C282.906 124.672 282.844 124.774 282.752 124.81C282.712 124.824 282.67 124.833 282.627 124.834C282.346 124.851 281.926 124.695 281.71 124.593C281.214 123.798 278.749 120.007 276.516 119.481L276.435 119.461L276.354 119.467C275.535 119.532 274.933 119.792 274.564 120.24C273.981 120.949 274.223 121.852 274.281 122.033L274.314 122.098C274.332 122.125 276.124 124.87 276.401 126.147C276.64 127.241 277.877 128.427 278.871 129.381L278.912 129.42C279.237 129.731 279.516 130.001 279.737 130.251C282.623 132.78 287.186 134.908 287.223 134.925C287.793 135.278 288.109 135.62 288.143 135.913C288.158 136.024 288.121 136.136 288.04 136.224L287.941 136.311L288.572 136.827L300.611 136.116L301.124 134.139C302.712 128.556 302.38 123.795 302.374 123.764C302.381 123.589 302.825 121.895 303.183 120.526L303.194 120.491C303.907 117.765 304.793 114.373 304.964 113.083C305.038 112.531 304.618 112.025 303.894 111.794L303.894 111.796Z" fill="#3B4262"/>
</g>
</g>
<defs>
<filter id="filter0_i" x="53.5288" y="202.529" width="110.942" height="110.942" filterUnits="userSpaceOnUse" color-interpolation-filters="sRGB">
<feFlood flood-opacity="0" result="BackgroundImageFix"/>
<feBlend mode="normal" in="SourceGraphic" in2="BackgroundImageFix" result="shape"/>
<feColorMatrix in="SourceAlpha" type="matrix" values="0 0 0 0 0 0 0 0 0 0 0 0 0 0 0 0 0 0 127 0" result="hardAlpha"/>
<feOffset dy="-10"/>
<feGaussianBlur stdDeviation="2"/>
<feComposite in2="hardAlpha" operator="arithmetic" k2="-1" k3="1"/>
<feColorMatrix type="matrix" values="0 0 0 0 0 0 0 0 0 0 0 0 0 0 0 0 0 0 0.25 0"/>
<feBlend mode="normal" in2="shape" result="effect1_innerShadow"/>
</filter>
<filter id="filter1_i" x="53.5288" y="206.529" width="110.942" height="106.942" filterUnits="userSpaceOnUse" color-interpolation-filters="sRGB">
<feFlood flood-opacity="0" result="BackgroundImageFix"/>
<feBlend mode="normal" in="SourceGraphic" in2="BackgroundImageFix" result="shape"/>
<feColorMatrix in="SourceAlpha" type="matrix" values="0 0 0 0 0 0 0 0 0 0 0 0 0 0 0 0 0 0 127 0" result="hardAlpha"/>
<feOffset dy="-10"/>
<feComposite in2="hardAlpha" operator="arithmetic" k2="-1" k3="1"/>
<feColorMatrix type="matrix" values="0 0 0 0 0 0 0 0 0 0 0 0 0 0 0 0 0 0 0.25 0"/>
<feBlend mode="normal" in2="shape" result="effect1_innerShadow"/>
</filter>
<filter id="filter2_i" x="12.5288" y="62.5289" width="110.942" height="110.942" filterUnits="userSpaceOnUse" color-interpolation-filters="sRGB">
<feFlood flood-opacity="0" result="BackgroundImageFix"/>
<feBlend mode="normal" in="SourceGraphic" in2="BackgroundImageFix" result="shape"/>
<feColorMatrix in="SourceAlpha" type="matrix" values="0 0 0 0 0 0 0 0 0 0 0 0 0 0 0 0 0 0 127 0" result="hardAlpha"/>
<feOffset dy="-10"/>
<feGaussianBlur stdDeviation="2"/>
<feComposite in2="hardAlpha" operator="arithmetic" k2="-1" k3="1"/>
<feColorMatrix type="matrix" values="0 0 0 0 0 0 0 0 0 0 0 0 0 0 0 0 0 0 0.25 0"/>
<feBlend mode="normal" in2="shape" result="effect1_innerShadow"/>
</filter>
<filter id="filter3_i" x="29" y="79" width="78" height="78" filterUnits="userSpaceOnUse" color-interpolation-filters="sRGB">
<feFlood flood-opacity="0" result="BackgroundImageFix"/>
<feBlend mode="normal" in="SourceGraphic" in2="BackgroundImageFix" result="shape"/>
<feColorMatrix in="SourceAlpha" type="matrix" values="0 0 0 0 0 0 0 0 0 0 0 0 0 0 0 0 0 0 127 0" result="hardAlpha"/>
<feOffset dy="-10"/>
<feGaussianBlur stdDeviation="2"/>
<feComposite in2="hardAlpha" operator="arithmetic" k2="-1" k3="1"/>
<feColorMatrix type="matrix" values="0 0 0 0 0 0 0 0 0 0 0 0 0 0 0 0 0 0 0.25 0"/>
<feBlend mode="normal" in2="shape" result="effect1_innerShadow"/>
</filter>
<filter id="filter4_i" x="197.529" y="202.529" width="110.942" height="110.942" filterUnits="userSpaceOnUse" color-interpolation-filters="sRGB">
<feFlood flood-opacity="0" result="BackgroundImageFix"/>
<feBlend mode="normal" in="SourceGraphic" in2="BackgroundImageFix" result="shape"/>
<feColorMatrix in="SourceAlpha" type="matrix" values="0 0 0 0 0 0 0 0 0 0 0 0 0 0 0 0 0 0 127 0" result="hardAlpha"/>
<feOffset dy="-10"/>
<feGaussianBlur stdDeviation="2"/>
<feComposite in2="hardAlpha" operator="arithmetic" k2="-1" k3="1"/>
<feColorMatrix type="matrix" values="0 0 0 0 0.196667 0 0 0 0 0 0 0 0 0 0.245833 0 0 0 0.25 0"/>
<feBlend mode="normal" in2="shape" result="effect1_innerShadow"/>
</filter>
<filter id="filter5_i" x="121.529" y="-3.47115" width="110.942" height="110.942" filterUnits="userSpaceOnUse" color-interpolation-filters="sRGB">
<feFlood flood-opacity="0" result="BackgroundImageFix"/>
<feBlend mode="normal" in="SourceGraphic" in2="BackgroundImageFix" result="shape"/>
<feColorMatrix in="SourceAlpha" type="matrix" values="0 0 0 0 0 0 0 0 0 0 0 0 0 0 0 0 0 0 127 0" result="hardAlpha"/>
<feOffset dy="-10"/>
<feGaussianBlur stdDeviation="2"/>
<feComposite in2="hardAlpha" operator="arithmetic" k2="-1" k3="1"/>
<feColorMatrix type="matrix" values="0 0 0 0 0 0 0 0 0 0 0 0 0 0 0 0 0 0 0.25 0"/>
<feBlend mode="normal" in2="shape" result="effect1_innerShadow"/>
</filter>
<filter id="filter6_i" x="138" y="13" width="78" height="78" filterUnits="userSpaceOnUse" color-interpolation-filters="sRGB">
<feFlood flood-opacity="0" result="BackgroundImageFix"/>
<feBlend mode="normal" in="SourceGraphic" in2="BackgroundImageFix" result="shape"/>
<feColorMatrix in="SourceAlpha" type="matrix" values="0 0 0 0 0 0 0 0 0 0 0 0 0 0 0 0 0 0 127 0" result="hardAlpha"/>
<feOffset dy="-10"/>
<feGaussianBlur stdDeviation="2"/>
<feComposite in2="hardAlpha" operator="arithmetic" k2="-1" k3="1"/>
<feColorMatrix type="matrix" values="0 0 0 0 0 0 0 0 0 0 0 0 0 0 0 0 0 0 0.25 0"/>
<feBlend mode="normal" in2="shape" result="effect1_innerShadow"/>
</filter>
<filter id="filter7_i" x="234.529" y="63.5289" width="110.942" height="110.942" filterUnits="userSpaceOnUse" color-interpolation-filters="sRGB">
<feFlood flood-opacity="0" result="BackgroundImageFix"/>
<feBlend mode="normal" in="SourceGraphic" in2="BackgroundImageFix" result="shape"/>
<feColorMatrix in="SourceAlpha" type="matrix" values="0 0 0 0 0 0 0 0 0 0 0 0 0 0 0 0 0 0 127 0" result="hardAlpha"/>
<feOffset dy="-10"/>
<feGaussianBlur stdDeviation="2"/>
<feComposite in2="hardAlpha" operator="arithmetic" k2="-1" k3="1"/>
<feColorMatrix type="matrix" values="0 0 0 0 0 0 0 0 0 0 0 0 0 0 0 0 0 0 0.25 0"/>
<feBlend mode="normal" in2="shape" result="effect1_innerShadow"/>
</filter>
<filter id="filter8_i" x="251" y="80" width="78" height="78" filterUnits="userSpaceOnUse" color-interpolation-filters="sRGB">
<feFlood flood-opacity="0" result="BackgroundImageFix"/>
<feBlend mode="normal" in="SourceGraphic" in2="BackgroundImageFix" result="shape"/>
<feColorMatrix in="SourceAlpha" type="matrix" values="0 0 0 0 0 0 0 0 0 0 0 0 0 0 0 0 0 0 127 0" result="hardAlpha"/>
<feOffset dy="-10"/>
<feGaussianBlur stdDeviation="2"/>
<feComposite in2="hardAlpha" operator="arithmetic" k2="-1" k3="1"/>
<feColorMatrix type="matrix" values="0 0 0 0 0 0 0 0 0 0 0 0 0 0 0 0 0 0 0.25 0"/>
<feBlend mode="normal" in2="shape" result="effect1_innerShadow"/>
</filter>
<clipPath id="clip0">
<rect width="329" height="313" fill="white"/>
</clipPath>
</defs>
</svg>
