<svg width="660" height="561" viewBox="0 0 660 561" fill="none" xmlns="http://www.w3.org/2000/svg">
<g id="main 1 1">
<path id="pent-dark" opacity="0.2" d="M342 127.5L148.5 261.953L222.41 479.5H461.59L535.5 261.953L342 127.501V127.5Z" stroke="black" stroke-width="15"/>
<path id="pent-;ight" opacity="0.2" d="M342 127.5L148.5 261.953L222.41 479.5H461.59L535.5 261.953L342 127.501V127.5Z" stroke="black" stroke-width="15"/>
<g id="paper">
<g id="paper-outline" filter="url(#filter0_i)">
<path id="Vector" d="M511.5 342C545.903 342 576 316.52 576 282.5C576 248.48 545.903 223 511.5 223C477.097 223 447 248.48 447 282.5C447 316.52 477.097 342 511.5 342Z" stroke="#280BDD" stroke-width="25"/>
</g>
<path id="paper-container" d="M512 334.5C544.309 334.5 570.5 310.995 570.5 282C570.5 253.005 544.309 229.5 512 229.5C479.691 229.5 453.5 253.005 453.5 282C453.5 310.995 479.691 334.5 512 334.5Z" fill="white"/>
<path id="paper-icon" d="M545.479 260.569C544.895 260.38 544.267 260.297 543.64 260.326C542.789 260.375 542.103 260.659 541.696 261.126C539.301 263.894 537.337 269.121 535.754 273.323C535.029 275.264 534.052 277.864 533.347 279.098C532.611 275.641 533.443 262.979 533.765 258.103L533.77 258.024C533.994 254.637 534.024 254.042 533.976 253.781C533.62 251.923 532.717 250.703 531.29 250.157C529.847 249.603 527.975 249.849 525.956 250.85C524.945 251.355 524.664 253.086 523.797 260.935L523.794 260.97C523.316 265.282 522.214 275.212 520.86 276.866C519.332 274.552 517.23 261.407 516.322 255.717C515.687 251.732 515.317 249.444 515.068 248.753C514.545 247.305 512.335 246.074 510.148 246.005C508.326 245.931 506.833 246.694 506.119 248.022C504.784 249.247 505.256 253.307 506.731 262.924C507.433 267.502 508.882 276.955 507.971 278.017C506.151 277.853 503.028 271.931 498.691 260.409C497.472 257.183 497.096 256.213 496.723 255.788C495.985 254.308 493.48 253.166 491.234 253.296C491.045 253.307 490.857 253.327 490.671 253.356C489.496 253.548 486.812 254.441 487.386 258.56C488.969 264.27 490.69 268.461 492.36 272.531L492.394 272.612C493.393 275.05 494.338 277.353 495.216 279.908C497.284 285.942 496.479 289.685 496.47 289.728C496.402 290.112 496.257 290.347 496.04 290.43C495.948 290.463 495.849 290.481 495.749 290.485C495.092 290.522 494.11 290.165 493.603 289.931C492.445 288.106 486.681 279.41 481.458 278.204L481.27 278.158L481.08 278.173C479.164 278.322 477.756 278.919 476.895 279.947C475.53 281.573 476.096 283.644 476.232 284.06L476.309 284.208C476.351 284.271 480.541 290.568 481.189 293.497C481.748 296.009 484.64 298.73 486.966 300.917L487.062 301.007C487.82 301.721 488.474 302.341 488.991 302.913C495.739 308.717 506.409 313.598 506.495 313.639C507.827 314.448 508.567 315.231 508.646 315.904C508.682 316.159 508.596 316.415 508.407 316.618L508.175 316.818L509.651 318L537.801 316.37L539.002 311.833C542.714 299.025 541.939 288.103 541.926 288.031C541.94 287.629 542.98 283.742 543.816 280.602L543.841 280.522C545.509 274.267 547.582 266.485 547.98 263.526C548.154 262.26 547.171 261.098 545.479 260.569Z" fill="#3B4262"/>
</g>
<g id="lizard">
<g id="lizard-outline" filter="url(#filter1_i)">
<path id="Vector_2" d="M458.5 521C492.903 521 523 495.52 523 461.5C523 427.48 492.903 402 458.5 402C424.097 402 394 427.48 394 461.5C394 495.52 424.097 521 458.5 521Z" stroke="#DD0BAE" stroke-width="25"/>
</g>
<path id="lizard-container" d="M459 513.5C491.309 513.5 517.5 489.995 517.5 461C517.5 432.005 491.309 408.5 459 408.5C426.691 408.5 400.5 432.005 400.5 461C400.5 489.995 426.691 513.5 459 513.5Z" fill="white"/>
<path id="lizard-icon" d="M478.087 430.123C481.604 427.881 484.975 427.396 487.578 428.757C493.415 431.805 492.57 443.152 490.181 448.069C488.833 450.845 486.443 452.873 483.072 454.106C481.765 458.364 479.931 462.023 477.589 465.049C479.141 466.382 481.099 467.111 483.121 467.108H483.219L486.508 463.766C487.337 462.925 488.68 462.924 489.508 463.766C490.336 464.606 490.336 465.971 489.508 466.812L489.217 467.108H489.879C491.05 467.108 492 468.073 492 469.263C492 470.452 491.05 471.417 489.879 471.417H489.217L489.508 471.713C490.336 472.553 490.336 473.918 489.508 474.76C489.094 475.18 488.552 475.391 488.009 475.391C487.466 475.391 486.923 475.18 486.509 474.76L483.218 471.417H483.12C480.033 471.421 477.048 470.285 474.707 468.215C474.255 468.637 473.789 469.042 473.309 469.429C469.244 472.701 464.275 474.603 458.467 475.124C459.207 477.42 459.336 479.878 458.84 482.243L458.819 482.344L461.351 486.446C461.657 486.942 461.762 487.542 461.642 488.117C461.522 488.691 461.187 489.195 460.709 489.517C460.367 489.748 459.967 489.871 459.558 489.872C459.199 489.871 458.846 489.777 458.531 489.599C458.217 489.42 457.951 489.162 457.76 488.85L457.536 488.486L457.394 489.164C457.293 489.657 457.032 490.1 456.653 490.418C456.274 490.737 455.8 490.912 455.31 490.915C455.157 490.915 455.004 490.898 454.854 490.863C454.298 490.733 453.814 490.382 453.509 489.887C453.203 489.391 453.1 488.792 453.222 488.219L453.364 487.541L453.016 487.775C452.78 487.932 452.516 488.04 452.239 488.092C451.963 488.144 451.679 488.138 451.404 488.076C451.129 488.014 450.87 487.896 450.64 487.729C450.41 487.563 450.214 487.351 450.065 487.106C449.759 486.609 449.655 486.009 449.775 485.435C449.895 484.86 450.23 484.358 450.708 484.035L454.647 481.398L454.669 481.297C455.098 479.25 454.823 477.114 453.892 475.252C452.144 475.199 450.4 475.049 448.668 474.804C443.566 474.093 440.672 476.41 439.906 477.136C433.896 482.844 432.733 492.929 432.722 493.031C432.663 493.572 432.413 494.071 432.02 494.434C431.626 494.797 431.116 494.999 430.587 495C430.237 495 429.892 494.911 429.582 494.741C429.273 494.572 429.008 494.327 428.812 494.028C428.717 493.883 426.455 490.404 425.463 485.494C424.116 478.826 425.722 472.71 430.109 467.806C432.71 464.91 435.986 462.744 439.626 461.513L439.183 461.632C438.032 461.08 436.777 460.794 435.507 460.795H435.409L432.107 464.138C431.705 464.544 431.164 464.77 430.602 464.769C430.057 464.769 429.512 464.558 429.096 464.138C428.899 463.939 428.742 463.702 428.635 463.441C428.528 463.179 428.473 462.898 428.473 462.614C428.473 462.33 428.528 462.049 428.635 461.787C428.742 461.526 428.899 461.289 429.096 461.09L429.388 460.795H428.724C427.548 460.795 426.596 459.831 426.596 458.641C426.596 457.45 427.549 456.487 428.724 456.487H429.388L429.096 456.191C428.899 455.992 428.742 455.755 428.635 455.494C428.527 455.232 428.472 454.951 428.472 454.667C428.472 454.382 428.527 454.101 428.635 453.84C428.742 453.578 428.899 453.341 429.096 453.142C429.927 452.302 431.275 452.302 432.107 453.142L435.409 456.485H435.507C437.273 456.482 439.022 456.85 440.644 457.568C442.266 458.286 443.729 459.339 444.94 460.661L444.704 460.411C446.645 460.212 448.601 460.248 450.533 460.518C455.92 461.269 460.325 460.498 463.726 458.218C461.81 455.775 460.768 452.728 460.775 449.589V449.485L457.52 446.027C457.126 445.603 456.906 445.038 456.906 444.451C456.906 443.864 457.126 443.3 457.52 442.875C457.712 442.669 457.942 442.505 458.197 442.393C458.452 442.281 458.727 442.223 459.004 442.223C459.282 442.223 459.556 442.281 459.811 442.393C460.066 442.505 460.297 442.669 460.488 442.875L460.777 443.181V442.485C460.777 441.254 461.716 440.256 462.875 440.256C464.033 440.256 464.973 441.254 464.973 442.485V443.18L465.262 442.875C465.454 442.669 465.684 442.505 465.939 442.393C466.194 442.281 466.469 442.223 466.746 442.223C467.023 442.223 467.298 442.281 467.553 442.393C467.808 442.505 468.038 442.669 468.23 442.875C469.478 444.201 468.579 445.658 468.23 446.027L464.973 449.485V449.587C464.973 451.692 465.665 453.704 466.902 455.301C468.44 453.411 469.649 451.033 470.524 448.173C469.884 446.352 468.89 442.039 471.426 437.149C472.754 434.588 475.307 431.896 478.088 430.123H478.087Z" fill="#3B4262"/>
</g>
<g id="stone">
<g id="stone-outline" filter="url(#filter2_i)">
<path id="Vector_3" d="M225.5 532C259.903 532 290 506.52 290 472.5C290 438.48 259.903 413 225.5 413C191.097 413 161 438.48 161 472.5C161 506.52 191.097 532 225.5 532Z" stroke="#DD0B0B" stroke-width="25"/>
</g>
<path id="stone-container" d="M226 524.5C258.309 524.5 284.5 500.995 284.5 472C284.5 443.005 258.309 419.5 226 419.5C193.691 419.5 167.5 443.005 167.5 472C167.5 500.995 193.691 524.5 226 524.5Z" fill="white"/>
<path id="stone-icon" d="M252.136 457.085C251.318 446.422 239.733 447.511 239.733 447.511C234.843 438.6 227.204 445.054 227.204 445.054C221.335 436.322 213.978 444.414 213.978 444.414C201.29 443 201.782 453.721 201.782 453.721C201.484 457.13 203.57 467.673 203.57 467.673C201.688 461.596 197.606 466.641 197.606 466.641C192.586 474.646 196.364 479.028 196.364 479.028C203.156 487.255 217.628 497.13 217.628 497.13C222.869 500.233 220.652 503 220.652 503L252.35 497.587L253.078 491.372C257.897 476.31 252.136 457.085 252.136 457.085Z" fill="#3B4262"/>
</g>
<g id="spock">
<g id="spock-outline" filter="url(#filter3_i)">
<path id="Vector_4" d="M148.5 331C182.903 331 213 305.52 213 271.5C213 237.48 182.903 212 148.5 212C114.097 212 84 237.48 84 271.5C84 305.52 114.097 331 148.5 331Z" stroke="#1D8BC8" stroke-width="25"/>
</g>
<path id="spock-container" d="M149 323.5C181.309 323.5 207.5 299.995 207.5 271C207.5 242.005 181.309 218.5 149 218.5C116.691 218.5 90.5 242.005 90.5 271C90.5 299.995 116.691 323.5 149 323.5Z" fill="white"/>
<path id="spock-icon" d="M180.471 274.988L179.195 273.912C176.145 271.341 171.158 270.783 167.435 272.585L159.482 276.414L161.139 245.746C161.139 243.176 158.657 241.083 155.602 241.083C154.942 241.083 154.307 241.182 153.719 241.361L153.917 239.715C153.917 237.115 151.395 235 148.299 235C145.435 235 143.034 236.809 142.731 239.129L137.627 265.1C137.561 265.453 136.834 265.417 136.757 265.194L130.729 244.373C130.401 243.426 129.719 242.593 128.785 242C127.852 241.407 126.716 241.085 125.549 241.083C123.895 241.083 122.358 241.71 121.329 242.804C120.823 243.338 120.468 243.963 120.291 244.631C120.114 245.3 120.12 245.993 120.308 246.659L121.479 250.852C120.811 250.808 120.139 250.879 119.505 251.062C118.354 251.383 117.375 252.04 116.744 252.916C116.114 253.791 115.873 254.828 116.064 255.841L119.611 273.021C119.611 279.798 121.021 284.815 122.206 287.827C122.882 289.56 123.225 291.373 123.222 293.198C123.222 294.805 122.957 296.405 122.432 297.949L119.681 306.062C119.527 306.521 119.636 307.014 119.974 307.395C120.317 307.776 120.849 308 121.416 308H153.915C154.201 308.001 154.483 307.944 154.737 307.834C154.992 307.725 155.212 307.566 155.379 307.37C155.547 307.175 155.657 306.948 155.701 306.71C155.745 306.471 155.721 306.227 155.631 305.997C155.612 305.959 154.103 302.031 155.532 296.689C157.344 295.45 163.689 291.104 165.967 289.352C169.733 286.454 180.051 277.502 180.489 277.121C180.82 276.835 181.003 276.451 181 276.051C180.997 275.651 180.807 275.269 180.471 274.987V274.988Z" fill="#3B4262"/>
</g>
<g id="scisor">
<g id="scisor-outline" filter="url(#filter4_i)">
<path id="Vector_5" d="M347.5 188C381.903 188 412 162.52 412 128.5C412 94.4802 381.903 69 347.5 69C313.097 69 283 94.4802 283 128.5C283 162.52 313.097 188 347.5 188Z" stroke="#DDA20B" stroke-width="25"/>
</g>
<path id="scisor-container" d="M348 180.5C380.309 180.5 406.5 156.995 406.5 128C406.5 99.0051 380.309 75.5 348 75.5C315.691 75.5 289.5 99.0051 289.5 128C289.5 156.995 315.691 180.5 348 180.5Z" fill="white"/>
<path id="scisor-icon" d="M329.641 126.008L338.954 114.546C335.083 113.981 327.975 113.856 322.153 118.952C312.975 126.987 309.258 144.343 308.483 148.545L331.808 168.965C336.008 168.649 354.599 166.476 372.515 150.795C372.704 150.456 377.069 147.633 373.5 144.51C371.796 143.019 368.979 143.047 367.239 144.57C366.353 145.347 364.976 145.356 364.109 144.597C363.241 143.839 363.254 142.632 364.14 141.857L370.47 136.315C373.686 133.499 370.655 128.748 366.164 129.89L360.983 133.773C360.036 134.495 358.628 134.371 357.851 133.582C357.047 132.769 357.219 131.535 358.134 130.841C376.237 116.937 373.593 118.61 385.242 109.054C389.593 105.882 384.119 100.273 379.831 103.483L351.654 125.665C350.835 126.275 349.579 126.287 348.773 125.637C347.842 124.933 347.821 123.918 348.429 123.118L368.082 96.372C370.954 92.9668 365.301 89.1844 362.275 92.6168L333.218 128.194C332.518 129.079 331.105 129.284 330.143 128.664C329.909 128.521 329.709 128.338 329.556 128.126C329.403 127.914 329.301 127.677 329.254 127.429C329.207 127.181 329.218 126.928 329.285 126.684C329.351 126.44 329.473 126.21 329.643 126.008H329.641Z" fill="#3B4262"/>
</g>
</g>
<defs>
<filter id="filter0_i" x="434.5" y="206.5" width="154" height="148" filterUnits="userSpaceOnUse" color-interpolation-filters="sRGB">
<feFlood flood-opacity="0" result="BackgroundImageFix"/>
<feBlend mode="normal" in="SourceGraphic" in2="BackgroundImageFix" result="shape"/>
<feColorMatrix in="SourceAlpha" type="matrix" values="0 0 0 0 0 0 0 0 0 0 0 0 0 0 0 0 0 0 127 0" result="hardAlpha"/>
<feOffset dy="-10"/>
<feGaussianBlur stdDeviation="2"/>
<feComposite in2="hardAlpha" operator="arithmetic" k2="-1" k3="1"/>
<feColorMatrix type="matrix" values="0 0 0 0 0 0 0 0 0 0 0 0 0 0 0 0 0 0 0.25 0"/>
<feBlend mode="normal" in2="shape" result="effect1_innerShadow"/>
</filter>
<filter id="filter1_i" x="381.5" y="385.5" width="154" height="148" filterUnits="userSpaceOnUse" color-interpolation-filters="sRGB">
<feFlood flood-opacity="0" result="BackgroundImageFix"/>
<feBlend mode="normal" in="SourceGraphic" in2="BackgroundImageFix" result="shape"/>
<feColorMatrix in="SourceAlpha" type="matrix" values="0 0 0 0 0 0 0 0 0 0 0 0 0 0 0 0 0 0 127 0" result="hardAlpha"/>
<feOffset dy="-10"/>
<feGaussianBlur stdDeviation="2"/>
<feComposite in2="hardAlpha" operator="arithmetic" k2="-1" k3="1"/>
<feColorMatrix type="matrix" values="0 0 0 0 0 0 0 0 0 0 0 0 0 0 0 0 0 0 0.25 0"/>
<feBlend mode="normal" in2="shape" result="effect1_innerShadow"/>
</filter>
<filter id="filter2_i" x="148.5" y="396.5" width="154" height="148" filterUnits="userSpaceOnUse" color-interpolation-filters="sRGB">
<feFlood flood-opacity="0" result="BackgroundImageFix"/>
<feBlend mode="normal" in="SourceGraphic" in2="BackgroundImageFix" result="shape"/>
<feColorMatrix in="SourceAlpha" type="matrix" values="0 0 0 0 0 0 0 0 0 0 0 0 0 0 0 0 0 0 127 0" result="hardAlpha"/>
<feOffset dy="-10"/>
<feGaussianBlur stdDeviation="2"/>
<feComposite in2="hardAlpha" operator="arithmetic" k2="-1" k3="1"/>
<feColorMatrix type="matrix" values="0 0 0 0 0 0 0 0 0 0 0 0 0 0 0 0 0 0 0.25 0"/>
<feBlend mode="normal" in2="shape" result="effect1_innerShadow"/>
</filter>
<filter id="filter3_i" x="71.5" y="195.5" width="154" height="148" filterUnits="userSpaceOnUse" color-interpolation-filters="sRGB">
<feFlood flood-opacity="0" result="BackgroundImageFix"/>
<feBlend mode="normal" in="SourceGraphic" in2="BackgroundImageFix" result="shape"/>
<feColorMatrix in="SourceAlpha" type="matrix" values="0 0 0 0 0 0 0 0 0 0 0 0 0 0 0 0 0 0 127 0" result="hardAlpha"/>
<feOffset dy="-10"/>
<feGaussianBlur stdDeviation="2"/>
<feComposite in2="hardAlpha" operator="arithmetic" k2="-1" k3="1"/>
<feColorMatrix type="matrix" values="0 0 0 0 0 0 0 0 0 0 0 0 0 0 0 0 0 0 0.25 0"/>
<feBlend mode="normal" in2="shape" result="effect1_innerShadow"/>
</filter>
<filter id="filter4_i" x="270.5" y="52.5" width="154" height="148" filterUnits="userSpaceOnUse" color-interpolation-filters="sRGB">
<feFlood flood-opacity="0" result="BackgroundImageFix"/>
<feBlend mode="normal" in="SourceGraphic" in2="BackgroundImageFix" result="shape"/>
<feColorMatrix in="SourceAlpha" type="matrix" values="0 0 0 0 0 0 0 0 0 0 0 0 0 0 0 0 0 0 127 0" result="hardAlpha"/>
<feOffset dy="-10"/>
<feGaussianBlur stdDeviation="2"/>
<feComposite in2="hardAlpha" operator="arithmetic" k2="-1" k3="1"/>
<feColorMatrix type="matrix" values="0 0 0 0 0 0 0 0 0 0 0 0 0 0 0 0 0 0 0.25 0"/>
<feBlend mode="normal" in2="shape" result="effect1_innerShadow"/>
</filter>
</defs>
</svg>
