<svg width="1530" height="1189" viewBox="0 0 1530 1189" fill="none" xmlns="http://www.w3.org/2000/svg">
<circle cx="766" cy="592" r="350" fill="white" fill-opacity="0.18"/>
<circle cx="766" cy="592" r="450" fill="#C4C4C4" fill-opacity="0.17"/>
<circle cx="766" cy="592" r="550" fill="#C4C4C4" fill-opacity="0.13"/>
<g filter="url(#filter0_i)">
<path d="M765 844C898.333 844 1015 736.941 1015 594C1015 451.059 898.333 344 765 344C631.667 344 515 451.059 515 594C515 736.941 631.667 844 765 844Z" stroke="#DD0BAE" stroke-width="25"/>
</g>
<path d="M766.937 812.486C892.171 812.486 993.683 713.727 993.683 591.899C993.683 470.072 892.171 371.311 766.937 371.311C641.705 371.311 540.193 470.072 540.193 591.899C540.193 713.727 641.705 812.486 766.937 812.486Z" fill="white"/>
<path d="M840.931 462.164C854.534 452.743 867.598 450.705 877.713 456.423C900.311 469.232 897.055 516.908 887.791 537.567C882.559 549.232 873.295 557.752 860.232 562.932C855.154 580.824 848.061 596.198 838.992 608.912C845 614.513 852.598 617.576 860.427 617.563H860.813L873.565 603.52C876.782 599.986 881.978 599.984 885.193 603.52C888.411 607.049 888.411 612.786 885.193 616.32L884.069 617.563H886.628C891.163 617.563 894.845 621.617 894.845 626.617C894.845 631.613 891.163 635.669 886.628 635.669H884.069L885.193 636.912C888.411 640.441 888.411 646.176 885.193 649.714C883.565 651.48 881.474 652.365 879.38 652.365C877.287 652.365 875.154 651.48 873.565 649.714L860.813 635.669H860.427C848.449 635.685 836.898 630.912 827.829 622.214C826.047 623.986 824.264 625.689 822.402 627.315C806.628 641.063 787.402 649.054 764.884 651.243C767.752 660.89 768.256 671.218 766.317 681.155L766.24 681.579L776.047 698.815C777.248 700.899 777.636 703.421 777.171 705.836C776.705 708.248 775.427 710.365 773.565 711.718C772.248 712.689 770.697 713.205 769.11 713.209C767.713 713.205 766.358 712.811 765.116 712.063C763.915 711.311 762.868 710.227 762.132 708.917L761.278 707.387L760.697 710.234C760.311 712.306 759.303 714.169 757.829 715.504C756.358 716.845 754.534 717.579 752.636 717.592C752.055 717.592 751.435 717.52 750.854 717.374C748.721 716.829 746.821 715.353 745.659 713.272C744.457 711.189 744.069 708.671 744.535 706.266L745.077 703.417L743.76 704.399C742.829 705.059 741.821 705.513 740.736 705.732C739.65 705.95 738.565 705.923 737.482 705.664C736.435 705.403 735.427 704.908 734.534 704.205C733.644 703.509 732.868 702.617 732.287 701.588C731.124 699.5 730.697 696.98 731.163 694.567C731.628 692.151 732.945 690.043 734.807 688.685L750.077 677.606L750.154 677.18C751.821 668.579 750.736 659.606 747.132 651.782C740.35 651.559 733.606 650.928 726.9 649.898C707.132 646.912 695.892 656.646 692.945 659.698C669.65 683.68 665.116 726.054 665.077 726.484C664.846 728.757 663.876 730.854 662.364 732.378C660.854 733.903 658.876 734.752 656.821 734.757C655.465 734.757 654.108 734.383 652.906 733.669C651.705 732.957 650.697 731.928 649.923 730.671C649.573 730.063 640.813 715.446 636.937 694.815C631.744 666.797 637.945 641.101 654.961 620.495C665.039 608.326 677.752 599.227 691.86 594.054L690.116 594.554C685.658 592.234 680.815 591.034 675.892 591.038H675.504L662.713 605.083C661.124 606.79 659.03 607.739 656.86 607.734C654.768 607.734 652.636 606.849 651.047 605.083C650.27 604.248 649.65 603.252 649.264 602.155C648.837 601.054 648.604 599.874 648.604 598.68C648.604 597.486 648.837 596.306 649.264 595.205C649.65 594.108 650.27 593.112 651.047 592.277L652.171 591.038H649.573C645.039 591.038 641.356 586.986 641.356 581.986C641.356 576.984 645.039 572.937 649.573 572.937H652.171L651.047 571.694C650.27 570.858 649.65 569.86 649.264 568.766C648.837 567.664 648.604 566.484 648.604 565.29C648.604 564.092 648.837 562.912 649.264 561.815C649.65 560.714 650.27 559.718 651.047 558.883C654.264 555.353 659.457 555.353 662.713 558.883L675.504 572.928H675.892C682.713 572.917 689.496 574.462 695.774 577.48C702.093 580.495 707.752 584.921 712.441 590.475L711.512 589.423C719.069 588.588 726.628 588.739 734.108 589.874C755 593.029 772.093 589.79 785.27 580.209C777.829 569.946 773.799 557.142 773.799 543.953V543.516L761.201 528.986C759.691 527.205 758.837 524.831 758.837 522.365C758.837 519.899 759.691 517.529 761.201 515.743C761.939 514.878 762.829 514.189 763.837 513.718C764.807 513.248 765.892 513.004 766.939 513.004C768.022 513.004 769.11 513.248 770.077 513.718C771.085 514.189 771.978 514.878 772.713 515.743L773.837 517.029V514.106C773.837 508.932 777.48 504.739 781.939 504.739C786.435 504.739 790.077 508.932 790.077 514.106V517.025L791.201 515.743C791.939 514.878 792.829 514.189 793.837 513.718C794.807 513.248 795.892 513.004 796.978 513.004C798.022 513.004 799.11 513.248 800.077 513.718C801.085 514.189 801.978 514.878 802.713 515.743C807.559 521.315 804.069 527.437 802.713 528.986L790.077 543.516V543.946C790.077 552.79 792.791 561.243 797.559 567.953C803.526 560.013 808.217 550.02 811.589 538.004C809.108 530.353 805.272 512.232 815.116 491.685C820.234 480.923 830.154 469.612 840.931 462.164Z" fill="#3B4262"/>
<defs>
<filter id="filter0_i" x="502.5" y="327.5" width="525" height="529" filterUnits="userSpaceOnUse" color-interpolation-filters="sRGB">
<feFlood flood-opacity="0" result="BackgroundImageFix"/>
<feBlend mode="normal" in="SourceGraphic" in2="BackgroundImageFix" result="shape"/>
<feColorMatrix in="SourceAlpha" type="matrix" values="0 0 0 0 0 0 0 0 0 0 0 0 0 0 0 0 0 0 127 0" result="hardAlpha"/>
<feOffset dy="-10"/>
<feGaussianBlur stdDeviation="2"/>
<feComposite in2="hardAlpha" operator="arithmetic" k2="-1" k3="1"/>
<feColorMatrix type="matrix" values="0 0 0 0 0 0 0 0 0 0 0 0 0 0 0 0 0 0 0.25 0"/>
<feBlend mode="normal" in2="shape" result="effect1_innerShadow"/>
</filter>
</defs>
</svg>
